<?xml version="1.0" standalone="no"?>
<!DOCTYPE svg PUBLIC "-//W3C//DTD SVG 20010904//EN"
 "http://www.w3.org/TR/2001/REC-SVG-20010904/DTD/svg10.dtd">
<svg version="1.0" xmlns="http://www.w3.org/2000/svg"
 width="4500.000000pt" height="4500.000000pt" viewBox="0 0 4500.000000 4500.000000"
 preserveAspectRatio="xMidYMid meet">

<g transform="translate(0.000000,4500.000000) scale(0.100000,-0.100000)"
fill="#000000" stroke="none">
<path d="M10310 12905 l0 -2595 810 0 810 0 2 823 3 822 460 6 c274 3 494 11
545 18 505 72 889 256 1175 563 370 397 513 982 395 1611 -66 346 -252 677
-507 900 -253 220 -560 352 -978 419 -139 22 -151 22 -1427 25 l-1288 4 0
-2596z m2268 1271 c84 -21 135 -49 194 -104 86 -80 128 -195 128 -348 0 -105
-14 -174 -49 -250 -37 -79 -96 -138 -177 -176 -103 -48 -195 -59 -484 -56
l-255 3 -3 465 c-1 256 0 471 3 479 8 20 554 9 643 -13z"/>
<path d="M15070 12905 l0 -2595 810 0 810 0 2 823 3 822 460 6 c274 3 494 11
545 18 505 72 889 256 1175 563 370 397 513 982 395 1611 -66 346 -252 677
-507 900 -253 220 -560 352 -978 419 -139 22 -151 22 -1427 25 l-1288 4 0
-2596z m2268 1271 c84 -21 135 -49 194 -104 86 -80 128 -195 128 -348 0 -105
-14 -174 -49 -250 -37 -79 -96 -138 -177 -176 -103 -48 -195 -59 -484 -56
l-255 3 -3 465 c-1 256 0 471 3 479 8 20 554 9 643 -13z"/>
<path d="M19820 12905 l0 -2595 810 0 810 0 0 1121 c0 616 4 1118 8 1115 4 -2
345 -507 757 -1120 l749 -1116 968 0 969 0 -48 68 c-27 37 -453 642 -948 1345
-495 702 -901 1283 -902 1290 -2 6 398 568 887 1247 l890 1235 -913 3 c-501 1
-916 0 -922 -2 -5 -2 -341 -490 -745 -1085 -404 -594 -738 -1080 -742 -1081
-5 0 -8 488 -8 1085 l0 1085 -810 0 -810 0 0 -2595z"/>
<path d="M25360 12905 l0 -2595 810 0 810 0 2 823 3 822 460 6 c274 3 494 11
545 18 505 72 889 256 1175 563 370 397 513 982 395 1611 -66 346 -252 677
-507 900 -253 220 -560 352 -978 419 -139 22 -151 22 -1427 25 l-1288 4 0
-2596z m2268 1271 c84 -21 135 -49 194 -104 86 -80 128 -195 128 -348 0 -105
-14 -174 -49 -250 -37 -79 -96 -138 -177 -176 -103 -48 -195 -59 -484 -56
l-255 3 -3 465 c-1 256 0 471 3 479 8 20 554 9 643 -13z"/>
<path d="M29820 14855 l0 -645 685 0 685 0 0 -1950 0 -1950 810 0 810 0 0
1950 0 1950 690 0 690 0 0 645 0 645 -2185 0 -2185 0 0 -645z"/>
<path d="M13394 9580 c-36 -14 -64 -59 -64 -102 0 -52 51 -108 100 -108 67 0
110 43 110 110 0 83 -71 131 -146 100z"/>
<path d="M24644 9580 c-36 -14 -64 -59 -64 -102 0 -52 51 -108 100 -108 67 0
110 43 110 110 0 83 -71 131 -146 100z"/>
<path d="M18700 8900 l0 -650 80 0 80 0 2 206 3 207 183 -207 183 -206 112 0
111 0 -45 48 c-26 26 -128 134 -228 241 l-182 194 38 41 c22 23 115 122 209
221 93 99 175 188 183 198 13 16 7 17 -97 17 l-110 0 -179 -205 -178 -206 -3
376 -2 375 -80 0 -80 0 0 -650z"/>
<path d="M21860 8900 l0 -650 80 0 80 0 0 650 0 650 -80 0 -80 0 0 -650z"/>
<path d="M25740 9474 c-70 -19 -154 -69 -190 -114 -58 -73 -65 -97 -65 -210 0
-122 15 -160 86 -224 52 -48 91 -65 259 -114 220 -65 266 -91 295 -167 37 -95
-5 -196 -100 -244 -39 -19 -66 -25 -125 -25 -133 -1 -209 46 -247 154 l-18 50
-84 0 -84 0 7 -47 c14 -102 80 -190 184 -242 79 -40 163 -55 278 -49 83 5 103
10 169 42 127 63 195 167 195 300 0 137 -54 223 -173 280 -40 19 -135 53 -212
75 -77 23 -160 54 -185 69 -128 77 -114 259 25 323 54 25 175 25 230 0 46 -21
112 -89 121 -126 6 -24 8 -25 96 -25 l90 0 -7 33 c-19 93 -95 191 -182 232
-96 46 -253 58 -363 29z"/>
<path d="M10240 8865 l0 -615 80 0 80 0 -2 613 -3 612 -77 3 -78 3 0 -616z"/>
<path d="M16580 9415 l0 -65 168 -2 167 -3 3 -547 2 -548 80 0 80 0 0 550 0
550 165 0 165 0 0 65 0 65 -415 0 -415 0 0 -65z"/>
<path d="M12750 9335 l0 -125 -60 0 -60 0 0 -65 0 -65 60 0 60 0 0 -313 c0
-355 5 -392 65 -452 48 -47 114 -65 242 -65 l103 0 0 70 0 70 -84 0 c-168 0
-166 -6 -166 390 l0 300 125 0 125 0 0 65 0 64 -122 3 -123 3 -3 123 -3 122
-79 0 -80 0 0 -125z"/>
<path d="M13820 9335 l0 -125 -60 0 -60 0 0 -65 0 -65 60 0 60 0 0 -313 c0
-355 5 -392 65 -452 48 -47 114 -65 242 -65 l103 0 0 70 0 70 -84 0 c-168 0
-166 -6 -166 390 l0 300 125 0 125 0 0 65 0 64 -122 3 -123 3 -3 123 -3 122
-79 0 -80 0 0 -125z"/>
<path d="M15580 9335 l0 -125 -60 0 -60 0 0 -65 0 -65 60 0 60 0 0 -313 c0
-355 5 -392 65 -452 48 -47 114 -65 242 -65 l103 0 0 70 0 70 -84 0 c-168 0
-166 -6 -166 390 l0 300 125 0 125 0 0 65 0 64 -122 3 -123 3 -3 123 -3 122
-79 0 -80 0 0 -125z"/>
<path d="M30700 9335 l0 -125 -60 0 -60 0 0 -65 0 -65 60 0 60 0 0 -313 c0
-355 5 -392 65 -452 48 -47 114 -65 242 -65 l103 0 0 70 0 70 -84 0 c-168 0
-166 -6 -166 390 l0 300 125 0 125 0 0 65 0 64 -122 3 -123 3 -3 123 -3 122
-79 0 -80 0 0 -125z"/>
<path d="M11027 9219 c-55 -13 -111 -44 -157 -87 l-40 -39 0 59 0 58 -80 0
-80 0 0 -480 0 -480 79 0 80 0 3 328 3 327 29 53 c54 96 137 138 261 130 121
-8 196 -67 231 -184 11 -36 14 -116 14 -351 l0 -303 80 0 80 0 0 308 c0 179
-5 333 -11 368 -27 148 -121 252 -261 290 -58 15 -172 17 -231 3z"/>
<path d="M11992 9214 c-150 -40 -226 -128 -227 -260 0 -61 4 -77 30 -119 17
-26 51 -63 76 -80 44 -30 81 -44 304 -111 114 -35 155 -70 155 -134 0 -36 -6
-48 -38 -80 -59 -59 -160 -77 -255 -44 -50 17 -112 77 -123 119 -6 24 -9 25
-90 25 l-83 0 5 -32 c24 -134 148 -235 314 -258 266 -36 467 120 421 326 -25
109 -99 162 -316 224 -60 18 -132 43 -158 56 -156 79 -88 243 101 244 104 0
182 -47 203 -122 l10 -38 80 0 81 0 -7 43 c-16 91 -77 172 -163 216 -81 41
-221 52 -320 25z"/>
<path d="M17900 9216 c-165 -35 -290 -157 -335 -327 -20 -72 -19 -239 1 -314
27 -106 94 -204 177 -257 70 -46 123 -66 209 -78 200 -29 392 60 477 219 47
89 46 91 -51 91 l-83 0 -28 -50 c-48 -88 -148 -136 -267 -128 -150 11 -263
112 -286 256 l-7 42 388 0 387 0 -4 119 c-4 113 -6 123 -41 194 -95 192 -306
283 -537 233z m236 -143 c70 -24 147 -103 168 -173 9 -30 16 -64 16 -77 l0
-23 -305 0 -306 0 7 38 c19 105 97 204 187 235 58 21 172 21 233 0z"/>
<path d="M19967 9219 c-55 -13 -111 -44 -157 -87 l-40 -39 0 59 0 58 -80 0
-80 0 0 -480 0 -480 79 0 80 0 3 328 3 327 29 53 c54 96 137 138 261 130 121
-8 196 -67 231 -184 11 -36 14 -116 14 -351 l0 -303 80 0 80 0 0 308 c0 179
-5 333 -11 368 -27 148 -121 252 -261 290 -58 15 -172 17 -231 3z"/>
<path d="M21055 9220 c-182 -38 -314 -161 -360 -335 -19 -74 -19 -233 -1 -302
49 -185 198 -317 386 -343 82 -12 184 -2 260 25 100 35 207 129 256 227 71
141 70 354 -3 491 -37 69 -126 158 -191 191 -98 49 -238 68 -347 46z m243
-160 c67 -29 134 -102 163 -178 31 -81 30 -214 -1 -296 -103 -268 -490 -280
-591 -18 -26 70 -35 188 -20 263 15 69 64 152 113 192 87 69 226 85 336 37z"/>
<path d="M22605 9220 c-182 -38 -314 -161 -360 -335 -19 -74 -19 -233 -1 -302
49 -185 198 -317 386 -343 82 -12 184 -2 260 25 100 35 207 129 256 227 71
141 70 354 -3 491 -37 69 -126 158 -191 191 -98 49 -238 68 -347 46z m243
-160 c67 -29 134 -102 163 -178 31 -81 30 -214 -1 -296 -103 -268 -490 -280
-591 -18 -26 70 -35 188 -20 263 15 69 64 152 113 192 87 69 226 85 336 37z"/>
<path d="M23691 9214 c-81 -22 -147 -62 -206 -125 -91 -99 -125 -195 -125
-354 0 -161 43 -277 137 -371 180 -181 506 -168 648 25 l25 35 0 -130 c0 -161
-15 -218 -73 -281 -48 -52 -98 -80 -168 -93 -66 -13 -165 2 -229 35 -51 26
-117 95 -126 132 -6 22 -11 23 -85 23 -75 0 -79 -1 -79 -22 0 -43 56 -142 106
-189 97 -90 209 -124 386 -117 102 4 121 7 181 35 117 55 200 154 233 277 11
40 14 164 14 584 l0 532 -80 0 -80 0 0 -78 0 -78 -57 56 c-32 30 -80 66 -106
78 -92 43 -215 53 -316 26z m287 -154 c78 -34 146 -113 173 -202 44 -143 5
-317 -88 -399 -100 -87 -242 -107 -359 -49 -112 55 -173 154 -182 295 -11 182
79 324 238 376 45 15 161 4 218 -21z"/>
<path d="M28015 9217 c-64 -21 -103 -45 -146 -88 l-39 -39 0 60 0 60 -80 0
-80 0 0 -480 0 -480 79 0 80 0 3 328 3 327 29 53 c50 89 128 132 240 132 104
-1 176 -44 224 -135 l27 -50 3 -327 3 -328 79 0 79 0 3 318 c3 306 4 319 26
367 46 101 130 155 238 155 117 0 200 -52 246 -154 22 -49 23 -63 26 -368 l4
-318 74 0 75 0 -3 353 -3 352 -27 57 c-53 115 -121 173 -233 203 -170 44 -345
-12 -429 -137 l-34 -50 -25 39 c-34 53 -91 101 -156 131 -67 31 -220 41 -286
19z"/>
<path d="M29751 9214 c-81 -22 -147 -62 -206 -125 -91 -99 -125 -195 -125
-354 0 -55 7 -124 15 -154 70 -263 322 -404 580 -324 67 21 151 78 186 126
l29 40 0 -86 0 -87 80 0 80 0 0 480 0 480 -80 0 -80 0 0 -79 0 -80 -50 53
c-104 110 -271 153 -429 110z m287 -154 c78 -34 146 -113 173 -202 44 -143 5
-317 -88 -399 -100 -87 -242 -107 -359 -49 -112 55 -173 154 -182 295 -11 182
79 324 238 376 45 15 161 4 218 -21z"/>
<path d="M31600 9216 c-165 -35 -290 -157 -335 -327 -20 -72 -19 -239 1 -314
27 -106 94 -204 177 -257 70 -46 123 -66 209 -78 200 -29 392 60 477 219 47
89 46 91 -51 91 l-83 0 -28 -50 c-48 -88 -148 -136 -267 -128 -150 11 -263
112 -286 256 l-7 42 388 0 387 0 -4 119 c-4 113 -6 123 -41 194 -95 192 -306
283 -537 233z m236 -143 c70 -24 147 -103 168 -173 9 -30 16 -64 16 -77 l0
-23 -305 0 -306 0 7 38 c19 105 97 204 187 235 58 21 172 21 233 0z"/>
<path d="M32750 9216 c-61 -16 -112 -49 -155 -99 l-35 -41 0 67 0 67 -80 0
-80 0 0 -480 0 -480 79 0 80 0 3 323 c3 308 4 324 25 362 44 83 103 118 216
130 l67 7 0 79 0 79 -37 -1 c-21 0 -58 -6 -83 -13z"/>
<path d="M33321 9214 c-81 -22 -147 -62 -206 -125 -91 -99 -125 -195 -125
-354 0 -55 7 -124 15 -154 70 -263 322 -404 580 -324 67 21 151 78 186 126
l29 40 0 -86 0 -87 80 0 80 0 0 480 0 480 -80 0 -80 0 0 -79 0 -80 -50 53
c-104 110 -271 153 -429 110z m287 -154 c78 -34 146 -113 173 -202 44 -143 5
-317 -88 -399 -100 -87 -242 -107 -359 -49 -112 55 -173 154 -182 295 -11 182
79 324 238 376 45 15 161 4 218 -21z"/>
<path d="M13360 8730 l0 -480 80 0 80 0 0 480 0 480 -80 0 -80 0 0 -480z"/>
<path d="M14422 8863 l3 -348 32 -67 c38 -81 92 -136 169 -174 55 -27 67 -29
179 -29 112 0 124 2 179 29 32 16 76 47 97 69 l39 39 0 -66 0 -66 80 0 80 0 0
480 0 480 -80 0 -80 0 0 -294 c0 -347 -8 -390 -82 -463 -58 -56 -104 -74 -193
-74 -85 0 -135 17 -183 64 -80 76 -92 142 -92 505 l0 262 -76 0 -75 0 3 -347z"/>
<path d="M24610 8730 l0 -480 80 0 80 0 0 480 0 480 -80 0 -80 0 0 -480z"/>
<path d="M26532 8863 l3 -348 32 -67 c38 -81 92 -136 169 -174 55 -27 67 -29
179 -29 112 0 124 2 179 29 32 16 76 47 97 69 l39 39 0 -66 0 -66 80 0 80 0 0
480 0 480 -80 0 -80 0 0 -294 c0 -347 -8 -390 -82 -463 -58 -56 -104 -74 -193
-74 -85 0 -135 17 -183 64 -80 76 -92 142 -92 505 l0 262 -76 0 -75 0 3 -347z"/>
</g>
</svg>
